<svg id="图层_1" data-name="图层 1" xmlns="http://www.w3.org/2000/svg" viewBox="0 0 193.58 32.06"><defs><style>.cls-1{fill:#006cb6;}.cls-1,.cls-2{fill-rule:evenodd;}.cls-2{fill:#e50012;}</style></defs><title>未标题-3</title><path id="_路径_" data-name="&lt;路径&gt;" class="cls-1" d="M75.72,2.84h4.63a1.79,1.79,0,0,1,1.24.51h0a1.71,1.71,0,0,1,.51,1.23v21.6c-.09,1.56.66,2.27,2.23,2.17h7.35c2,0,3.6,1.1,3.6,3.36v1.43a1.74,1.74,0,0,1-.52,1.24l-.06,0a1.7,1.7,0,0,1-1.17.46H80.4a6.43,6.43,0,0,1-4.49-1.83L75.83,33h0a6.51,6.51,0,0,1-1.37-2.06A6.3,6.3,0,0,1,74,28.48V4.59a1.71,1.71,0,0,1,.51-1.23h0A1.79,1.79,0,0,1,75.72,2.84Z" transform="translate(-0.42 -2.84)"/><path id="_路径_2" data-name="&lt;路径&gt;" class="cls-1" d="M158.73,2.84h4.64a1.75,1.75,0,0,1,1.23.51l.05.06a1.73,1.73,0,0,1,.47,1.18V33.15a1.75,1.75,0,0,1-.52,1.24h0a1.73,1.73,0,0,1-1.23.51H161a6.52,6.52,0,0,1-5.43-3.36L147,16.84V33.15a1.79,1.79,0,0,1-.51,1.24h0a1.72,1.72,0,0,1-1.23.51h-4.63a1.75,1.75,0,0,1-1.24-.51h0a1.73,1.73,0,0,1-.51-1.24V4.64a1.71,1.71,0,0,1,.51-1.23l.06-.06a1.75,1.75,0,0,1,1.18-.46h2.76c2.56,0,4.17,1.38,5.6,3.86l8,14V4.59a1.71,1.71,0,0,1,.52-1.23h0A1.75,1.75,0,0,1,158.73,2.84Z" transform="translate(-0.42 -2.84)"/><path id="_路径_3" data-name="&lt;路径&gt;" class="cls-1" d="M63.1,2.84h4.64A1.75,1.75,0,0,1,69,3.35l.06.06a1.77,1.77,0,0,1,.46,1.18V33.15A1.74,1.74,0,0,1,69,34.39l0,0a1.74,1.74,0,0,1-1.18.46H63.1a1.72,1.72,0,0,1-1.23-.51h0a1.74,1.74,0,0,1-.52-1.24V4.59a1.71,1.71,0,0,1,.52-1.23h0A1.76,1.76,0,0,1,63.1,2.84Z" transform="translate(-0.42 -2.84)"/><path id="_路径_4" data-name="&lt;路径&gt;" class="cls-1" d="M2.17,2.84H6.8A1.77,1.77,0,0,1,8,3.35H8a1.71,1.71,0,0,1,.51,1.23V14.5c0,.86.35,1.38,1.32,1.35h9.56c.82,0,1.11-.41,1.1-1.14A1.77,1.77,0,0,1,21,13.47h0A1.75,1.75,0,0,1,22.28,13h4.63a1.75,1.75,0,0,1,1.24.52h0a1.73,1.73,0,0,1,.51,1.24V33.15a1.73,1.73,0,0,1-.51,1.24l-.06,0a1.71,1.71,0,0,1-1.18.46H22.28a1.71,1.71,0,0,1-1.23-.51h0a1.77,1.77,0,0,1-.51-1.24V23.77a1.23,1.23,0,0,0-1.33-1.38H10c-1-.05-1.48.4-1.46,1.42v9.34A1.73,1.73,0,0,1,8,34.39l0,0a1.75,1.75,0,0,1-1.19.46H2.17a1.71,1.71,0,0,1-1.23-.51h0a1.75,1.75,0,0,1-.51-1.23V4.59A1.75,1.75,0,0,1,.93,3.36h0A1.79,1.79,0,0,1,2.17,2.84Z" transform="translate(-0.42 -2.84)"/><path id="_路径_5" data-name="&lt;路径&gt;" class="cls-2" d="M26.91,11H22.28A1.75,1.75,0,0,1,21,10.46L21,10.41a1.75,1.75,0,0,1-.46-1.19V4.59A1.75,1.75,0,0,1,21,3.36h0a1.79,1.79,0,0,1,1.24-.51h4.63a1.77,1.77,0,0,1,1.24.51l.05.06a1.73,1.73,0,0,1,.46,1.18V9.22a1.73,1.73,0,0,1-.51,1.24h0A1.73,1.73,0,0,1,26.91,11Z" transform="translate(-0.42 -2.84)"/><path id="_路径_6" data-name="&lt;路径&gt;" class="cls-1" d="M99.16,2.84h4.63a1.79,1.79,0,0,1,1.24.51l0,.06a1.77,1.77,0,0,1,.46,1.18V33.15a1.77,1.77,0,0,1-.51,1.24l-.06,0a1.73,1.73,0,0,1-1.18.46H99.16a1.73,1.73,0,0,1-1.24-.51h0a1.73,1.73,0,0,1-.51-1.24V4.59a1.71,1.71,0,0,1,.51-1.23h0A1.77,1.77,0,0,1,99.16,2.84Z" transform="translate(-0.42 -2.84)"/><path id="_路径_7" data-name="&lt;路径&gt;" class="cls-1" d="M41.49,2.84h4c3,0,4.49,1.39,5.43,4.23l8.56,26c.49,1.18-.2,1.81-1,1.81h-5a1.72,1.72,0,0,1-1.54-1c-3.41-10.82-3.09-9.76-6.87-21.63a.12.12,0,0,0-.23,0C41.4,22.84,41,24.15,38,33.82a1.69,1.69,0,0,1-1.55,1.08H31.58c-1,0-1.68-.55-1.25-1.81l9.6-29.16A1.69,1.69,0,0,1,41.49,2.84Z" transform="translate(-0.42 -2.84)"/><path id="_路径_8" data-name="&lt;路径&gt;" class="cls-1" d="M118.65,2.84h4c3,0,4.49,1.39,5.43,4.23l8.56,26c.49,1.18-.21,1.81-1,1.81h-5a1.7,1.7,0,0,1-1.53-1c-3.41-10.82-3.09-9.76-6.87-21.63a.12.12,0,0,0-.23,0c-3.42,10.6-3.79,11.91-6.85,21.58a1.7,1.7,0,0,1-1.56,1.08h-4.83c-1,0-1.68-.55-1.25-1.81l9.6-29.16A1.69,1.69,0,0,1,118.65,2.84Z" transform="translate(-0.42 -2.84)"/><path id="_路径_9" data-name="&lt;路径&gt;" class="cls-1" d="M175.77,2.91h10a8.25,8.25,0,0,1,8.2,8.25v1c0,.75-.3,1.15-1.09,1.15h-6c-.63,0-1.07-.21-1.07-1A2.29,2.29,0,0,0,183.53,10H178a2.29,2.29,0,0,0-2.27,2.29V25.46A2.28,2.28,0,0,0,178,27.74h5.49a2.28,2.28,0,0,0,2.27-2.28v-3h-3.5A1.38,1.38,0,0,1,180.92,21v-3.8a1.38,1.38,0,0,1,1.38-1.39h10.32A1.38,1.38,0,0,1,194,17.23v9.35a8.26,8.26,0,0,1-8.2,8.26h-10a8.25,8.25,0,0,1-8.19-8.26V11.16A8.24,8.24,0,0,1,175.77,2.91Z" transform="translate(-0.42 -2.84)"/></svg>